<?xml version="1.0" encoding="utf-8"?>
<!-- Generator: Adobe Illustrator 27.1.0, SVG Export Plug-In . SVG Version: 6.00 Build 0)  -->
<svg version="1.1" xmlns="http://www.w3.org/2000/svg" xmlns:xlink="http://www.w3.org/1999/xlink" x="0px" y="0px"
	 viewBox="0 0 1254 1254" style="enable-background:new 0 0 1254 1254;" xml:space="preserve">
<style type="text/css">
	.st0{display:none;}
	.st1{display:inline;fill:#010101;}
	.st2{display:inline;fill:#FDFDFD;}
	.st3{display:inline;fill:#020202;}
	.st4{display:inline;fill:#030303;}
	.st5{display:inline;fill:#1C1C1C;}
	.st6{display:inline;fill:#FBFBFB;}
	.st7{display:inline;fill:#F9F9F9;}
	.st8{display:inline;fill:#F8F9F9;}
	.st9{display:inline;fill:#F7F8F8;}
	.st10{display:inline;fill:#0F0F0F;}
	.st11{display:inline;fill:#F7F7F7;}
	.st12{display:inline;fill:#0E0E0E;}
	.st13{display:inline;fill:#0C0D0C;}
	.st14{display:inline;fill:#121212;}
	.st15{display:inline;fill:#212121;}
	.st16{display:inline;fill:#3C3D3C;}
	.st17{display:inline;fill:#080808;}
	.st18{display:inline;fill:#DFDFE0;}
	.st19{display:inline;fill:#EAEAEA;}
	.st20{display:inline;fill:#161516;}
	.st21{fill:#95887C;}
	.st22{fill:#FDFDFD;}
	.st23{fill:#020202;}
	.st24{fill:#030303;}
	.st25{fill:#FBFBFB;}
	.st26{fill:#F9F9F9;}
	.st27{fill:#F8F9F9;}
	.st28{fill:#F7F8F8;}
	.st29{fill:#0F0F0F;}
	.st30{fill:#F7F7F7;}
	.st31{fill:#0E0E0E;}
	.st32{fill:#0C0D0C;}
	.st33{fill:#121212;}
	.st34{fill:#080808;}
	.st35{fill:#161516;}
</style>
<g id="Capa_1" class="st0">
	<path class="st1" d="M692.3,363.8c7.8,6.1,15,12.9,22.1,19.7c2.5,2.4,5.1,4.6,7.7,6.9c2.3,2,4.6,4.1,6.9,6.1
		c2.9,2.7,5.9,5.3,8.9,7.9c4,3.5,7.8,7,11.7,10.6c3.4,3.1,6.9,6.2,10.4,9.2c3.5,3.1,7,6.3,10.4,9.4c2.2,2,4.4,3.9,6.6,5.8
		c3.9,3.4,7.8,7,11.6,10.5c2.8,2.6,5.6,5.1,8.4,7.5c3.9,3.4,7.8,6.9,11.6,10.4c2.8,2.6,5.7,5.2,8.7,7.7c21.2,18.5,31,47.3,42.6,72.2
		c4.2,9.2,8.6,18.3,12.9,27.5c3.1,6.5,6.1,12.9,9.2,19.4c0.7,1.5,1.4,3,2.1,4.4c7.7,16.2,15.2,32.4,22.5,48.8c0.3,0.7,0.7,1.5,1,2.2
		c2.2,4.9,4.4,9.9,6.5,14.8c0.3,0.8,0.7,1.5,1,2.3c1,2.3,2,4.6,2.9,6.9c0.3,0.7,0.6,1.4,0.9,2.1c3.6,8.7,3.2,15.5,0.1,24.3
		c-8.3,19.4-23.5,33.9-41.3,44.7c-2.1,1.3-4.3,2.6-6.4,3.9c-1.6,1-1.6,1-3.2,2c-4.2,2.6-8.4,5.3-12.6,7.9c-0.8,0.5-1.5,1-2.3,1.4
		c-7,4.4-13.9,8.8-20.9,13.3c-9.8,6.3-19.7,12.5-29.5,18.7c-10.2,6.4-20.3,12.9-30.5,19.3c-5.8,3.7-11.7,7.4-17.5,11.1
		c-7.3,4.6-14.6,9.3-21.9,13.9c-8.3,5.3-16.6,10.6-24.9,15.8c-7.9,4.9-15.8,9.9-23.6,15.1c-9.9,6.5-20,12.8-30.1,19
		c-2,1.2-4,2.5-5.9,3.8c-15.5,10-32.1,15.2-50.6,15.1c-1.2,0-2.4,0-3.6,0c-9.6-0.2-17.4-1.6-26.1-5.5c-1.6-0.7-1.6-0.7-3.3-1.4
		c-10.5-4.9-18.5-12.2-26.9-20c-2.2-2-4.4-4-6.6-5.9c-5.2-4.5-10.3-9.3-15.3-14.1c-3.4-3.2-6.9-6.4-10.4-9.6
		c-4.8-4.4-9.5-8.8-14.2-13.2c-4.8-4.5-9.7-9-14.7-13.4c-4.1-3.7-8.1-7.5-12.1-11.3c-3.5-3.3-7-6.5-10.5-9.7
		c-4.2-3.8-8.4-7.6-12.5-11.5c-4.9-4.6-9.9-9.2-15-13.7c-3.5-3.2-7.1-6.4-10.6-9.7c-3.6-3.4-7.3-6.7-11-10.1
		c-4.7-4.3-9.4-8.7-14.1-13c-3.6-3.3-7.2-6.7-10.9-10c-1-0.9-2-1.8-3-2.7c-2.1-1.9-4.1-3.8-6.2-5.6c-36.5-33.3-36.5-33.3-38.1-51
		c-0.6-15.5,6.8-30.6,12.1-44.9c0.4-1,0.7-2.1,1.1-3.1c5.6-15.6,11.4-31.1,17.2-46.6c0.6-1.6,1.2-3.3,1.8-4.9
		c0.3-0.8,0.6-1.6,0.9-2.5c2.7-7.1,5.3-14.2,7.9-21.3c0.9-2.3,1.7-4.6,2.6-6.9c1.2-3.4,2.5-6.7,3.7-10.1
		c11.9-32.3,22.6-51.7,53-69.3c2.1-1.2,4.2-2.5,6.4-3.7c1.1-0.6,2.1-1.2,3.2-1.9c5.1-2.9,10.1-5.9,15.2-8.9c2-1.2,4-2.3,6-3.5
		c1-0.6,2-1.2,3-1.8c3-1.8,6-3.5,9-5.2c1.5-0.9,1.5-0.9,3-1.7c2-1.2,4-2.3,6-3.5c5-2.9,10-5.8,14.9-8.7
		c10.4-6.1,20.8-12.1,31.2-18.1c8-4.6,15.9-9.2,23.9-13.9c9-5.3,18.1-10.6,27.2-15.8c5.5-3.1,10.9-6.3,16.4-9.5
		C630.3,349.3,660.1,339.6,692.3,363.8z"/>
	<path class="st2" d="M686.3,366.6c5.3,4,10.2,8.5,15.1,13c2.2,2,4.4,4,6.6,5.9c4.2,3.6,8.3,7.4,12.3,11.1c2.2,2,4.4,3.9,6.6,5.8
		c3.9,3.4,7.8,7,11.6,10.5c2.8,2.6,5.6,5.1,8.4,7.5c3.9,3.4,7.8,6.9,11.6,10.5c2.8,2.5,5.5,5,8.4,7.5c3.6,3.1,7.1,6.3,10.6,9.6
		c4.1,3.8,8.3,7.6,12.6,11.3c4.9,4.3,9.8,8.7,14.6,13.1c1.3,1.2,1.3,1.2,2.6,2.4c0.8,0.8,1.7,1.5,2.5,2.3c2.3,2.1,2.3,2.1,5.3,4.3
		c9.5,8.7,17,20.1,17.6,33.2c-0.5,10.7-5,19.2-12.6,26.5c-0.7,0.7-1.4,1.4-2.2,2.1c-6.4,5.9-13.2,11.2-20.1,16.6
		c-1.6,1.2-3.2,2.5-4.8,3.8C778.5,574.7,763.3,585,748,595c-0.7,0.5-1.4,0.9-2.1,1.4c-13.4,8.6-27.1,16.7-40.9,24.6
		c-0.8,0.5-1.6,0.9-2.4,1.4c-25,14.3-51.1,28.3-77.9,39c-7.4,3.1-11.9,7-15.1,14.5c-1.3,4.1-1.3,8.2-1.5,12.4c-0.1,1-0.1,2-0.2,3.1
		c-0.2,3.3-0.3,6.6-0.5,10c-0.1,2.4-0.2,4.7-0.4,7.1c-0.3,4.9-0.5,9.7-0.8,14.6c-0.3,6.3-0.7,12.7-1.1,19c-0.1,1.4-0.1,1.4-0.2,2.9
		c-0.1,1.9-0.2,3.9-0.4,5.8c-0.9,15.3-1.8,30.6-2.6,45.9c-0.1,2.5-0.3,5-0.4,7.6c-0.1,1.7-0.2,3.4-0.3,5.1c-0.1,1.3-0.1,1.3-0.1,2.5
		c-0.3,5-0.5,9.9-0.8,14.9c-0.2,3.1-0.3,6.3-0.5,9.4c-0.1,1.5-0.1,2.9-0.2,4.4c-1.2,25-1.2,25-6.9,34.6c-1.7-0.3-3.3-0.7-5-1
		c-3.1-8.1-4.6-15.1-4.7-23.7c0-1.2-0.1-2.3-0.1-3.5c-0.1-3.3-0.1-6.6-0.2-9.8c-0.1-3.6-0.2-7.2-0.2-10.7
		c-0.2-6.8-0.3-13.6-0.5-20.5c-0.3-13.8-0.6-27.7-1-41.5c-0.2-7.4-0.4-14.7-0.5-22.1c0-0.7,0-1.5-0.1-2.2c-0.4-16.7-0.8-33.3-1.2-50
		c0-0.7,0-1.3,0-2c-0.2-7.9-0.4-15.9-0.5-23.8c-0.8-0.3-1.5-0.5-2.3-0.8c-1-0.4-2-0.7-3-1.1c-1-0.4-2-0.7-3-1.1
		c-14.7-5.5-26-17.4-37.3-28c-3.5-3.3-7.1-6.5-10.9-9.5c-5.5-4.4-10.6-9.2-15.7-14.1c-3.9-3.7-7.9-7.3-12-10.9
		c-2.4-2.1-4.8-4.3-7.1-6.5c-3.6-3.3-7.2-6.4-10.9-9.4c-6.1-4.9-11.7-10.2-17.3-15.5c-3.1-2.9-6.3-5.8-9.6-8.6
		c-2.3-2-4.6-4.1-6.9-6.1c-3-2.7-6-5.4-9-8c-3.9-3.4-7.7-6.8-11.5-10.3c-1.5-1.4-3.1-2.7-4.7-4c-7.2-5.8-12.9-13.9-14-23.3
		c-0.5-8.9,3.3-15.4,9.1-21.9c6.4-5.9,13.7-10.2,21.2-14.5c2.1-1.2,4.3-2.5,6.4-3.7c1.1-0.6,2.2-1.3,3.3-1.9
		c5.1-2.9,10.1-5.9,15.1-8.8c8.3-4.8,16.6-9.6,24.9-14.4c8.9-5.1,17.7-10.3,26.6-15.6c10.4-6.2,20.8-12.2,31.4-18.2
		c7.5-4.3,15-8.6,22.4-12.9c11.6-6.8,23.1-13.5,34.8-20.1c3-1.8,6.1-3.5,9.1-5.3c1.9-1.1,3.7-2.1,5.6-3.2c0.8-0.5,1.7-1,2.5-1.5
		C639.9,351.1,663.3,350.6,686.3,366.6z"/>
	<path class="st3" d="M590.2,485.7c7.2,4.6,13.4,11,15.8,19.3c0.7,5.7,0.4,10.2-3,15c-6.3,6.7-12.9,10.1-22,11
		c-0.6,0.1-1.2,0.1-1.9,0.2c-11.7,0.6-23.1-4-32.1-11.2c-6.2-5.9-10.4-12-11.1-20.7c0.3-5.6,3.3-9.8,7.2-13.6
		C557.4,474.8,575.3,477.5,590.2,485.7z"/>
	<path class="st4" d="M628.5,449.6c3.8,2.3,6.2,4.6,8.5,8.4c0.3,3.9,0.3,3.9,0,7c1.3-0.1,2.6-0.2,3.9-0.3c6.5,0,11.9,2.6,16.8,6.8
		c3,3.3,4.4,6.1,4.3,10.5c-2.7,7.4-8.4,10.2-15,14c-1.6,1-3.3,1.9-4.9,2.9c-4.7,2.7-9.4,5.4-14.1,8.1c-5.1-3.7-9.9-7.6-14.5-11.9
		c-1.1-1.1-2.3-2.1-3.4-3.2c-0.5-0.5-1.1-1-1.6-1.5c-2.5-2.3-5-4.5-7.5-6.7c-3.2-2.8-6.3-5.6-9.5-8.5c-3-2.7-6-5.2-9.1-7.8
		C581,466,581,466,581,464c2.1-1.5,2.1-1.5,5-3.2c1.1-0.6,2.1-1.2,3.2-1.9c1.1-0.6,2.2-1.3,3.4-1.9c1.1-0.6,2.2-1.3,3.3-1.9
		C606,449.3,617,444.4,628.5,449.6z"/>
	<path class="st4" d="M668.4,425.7c1.2,0.6,1.2,0.6,2.5,1.1c2.7,1.2,5.3,2.4,8,3.6c3.6,1.6,7.2,3.3,10.9,4.9
		c0.9,0.4,1.8,0.8,2.7,1.2c8.1,3.6,16.2,7.2,24.3,10.6c0.8,0.4,1.7,0.7,2.5,1.1c1.1,0.4,1.1,0.4,2.1,0.9c1.6,0.9,1.6,0.9,2.6,2.9
		c-3.8,2.7-7.4,4.8-12,6c-3.2-1.3-3.2-1.3-6.6-3.3c-3.6-2-3.6-2-7.4-2.7c-6.3,2-11.9,6.1-17.3,9.9C679,463,679,463,677,463
		c0.4,0.7,0.7,1.4,1.1,2.1c0.5,0.9,0.9,1.8,1.4,2.7c0.5,0.9,0.9,1.8,1.4,2.7c1.1,2.5,1.1,2.5,1.1,5.5c-1.4,0.9-2.9,1.7-4.3,2.6
		c-1.2,0.7-1.2,0.7-2.4,1.4c-2.3,1-2.3,1-5.3,0c-1.1-1.8-1.1-1.8-2.2-4.1c-0.4-0.9-0.8-1.8-1.3-2.7c-0.4-1-0.9-1.9-1.3-3
		c-1-2.1-1.9-4.2-2.9-6.2c-0.5-1.1-1-2.2-1.6-3.4c-2.8-5.9-5.6-11.7-8.4-17.6c-1.2-2.6-2.5-5.2-3.7-7.7c-1.2-2.4-2.4-4.9-3.5-7.3
		c2-2.1,3.9-3.8,6.4-5.2c0.6-0.4,1.1-0.7,1.7-1.1C658.2,419.9,663.9,423.6,668.4,425.7z"/>
	<path class="st4" d="M521,500c1,14.4,1,14.4,2,29c2.4,0.5,4.8,1,7.3,1.6c12.7,2.8,25.2,6.1,37.7,9.4c-3.6,3.7-7.1,6.9-12.4,7.1
		c-7.2-0.7-13.9-2.2-20.8-4.1c-1-0.3-2.1-0.6-3.2-0.9c-2.5-0.7-5.1-1.4-7.6-2.1c0.1,4.8,0.2,8,3.3,11.8c0.9,0.7,1.8,1.5,2.8,2.2
		c0.9,0.8,1.8,1.5,2.8,2.3c1.1,0.8,1.1,0.8,2.2,1.7c-1.1,3.3-1.5,3.6-4.3,5.2c-0.6,0.4-1.2,0.7-1.8,1.1c-2.5,0.9-3.4,0.8-5.9-0.3
		c-2.1-1.8-4.1-3.6-6.1-5.5c-4-3.8-8.1-7.5-12.4-11c-4.8-3.9-9.4-8-13.9-12.2c-3.8-3.5-7.6-6.9-11.6-10.3c2.5-2.6,4.5-4.8,8-6
		c5.5,0.1,8.4,3.8,12.1,7.4c1.2,1.2,2.4,2.4,3.7,3.5c0.5,0.5,1.1,1,1.6,1.6c1.8,1.6,3.7,3.1,5.7,4.5c-0.7-9.6-1.3-19.1-2-29
		C519,500,519,500,521,500z"/>
	<path class="st5" d="M660,349c0,0.3,0,0.7,0,1c-2,0.3-4,0.7-6,1c-0.3,1-0.7,2-1,3c-0.9,0.1-1.9,0.2-2.8,0.3
		c-21,2.3-38.4,13.3-56.2,24.1c-6.1,3.7-12.3,7.3-18.5,10.8c-8.5,4.9-17.1,9.8-25.6,14.8c-8.3,4.9-16.7,9.7-25,14.5
		c-9.5,5.5-19,11-28.4,16.5c-6.2,3.6-12.3,7.2-18.5,10.7c-8,4.6-15.9,9.3-23.9,14c-3.9,2.3-7.8,4.6-11.7,6.9
		c-1.4,0.8-2.9,1.7-4.3,2.5c-1,0.6-2.1,1.2-3.1,1.8c-1-0.7-2-1.3-3-2c0.5-1,0.5-1,1-2c-2,0.5-2,0.5-4,1c2.4-2.6,4.9-4.2,8-6
		c1-0.6,2-1.2,3.1-1.8c1.1-0.6,2.2-1.2,3.3-1.9c2.4-1.4,4.7-2.7,7.1-4.1c0.6-0.4,1.2-0.7,1.9-1.1c6.8-3.9,13.5-7.8,20.3-11.8
		c1.8-1.1,3.7-2.2,5.5-3.2c1.2-0.7,2.4-1.4,3.6-2.1c15-8.8,30.1-17.6,45.2-26.3c8.2-4.7,16.4-9.5,24.6-14.3
		c10.3-6.1,20.6-12.1,31-18c5.3-3.1,10.7-6.2,16-9.3C619.4,355.8,635.4,348.3,660,349z"/>
	<path class="st6" d="M581.8,493.5c4,2.7,7.1,6.2,9.2,10.5c0.7,4.8,0.8,8-2.2,11.9c-5.8,4.2-10.8,4.9-17.8,4.1
		c-8-2.1-13.8-6-18.9-12.4c-1.5-3.6-1.7-6.8-1.1-10.6c2.3-4.3,5.2-6.1,9.7-7.6C568.2,488,575.1,489.8,581.8,493.5z"/>
	<path class="st7" d="M744.4,469.7c4.7,2.1,7.8,4.9,10.6,9.3c0.7,3.1,0.5,4.7,0,8c-3,4.1-6,6-11,7c-6.3,0.1-11.8-1.4-17-5
		c-3.1-3.4-4.8-5.7-5.5-10.2c0.5-3.8,0.7-4.6,3.2-7.2C730.4,467.3,737.9,467.8,744.4,469.7z"/>
	<path class="st8" d="M642,474c3.1,2.2,3.1,2.2,5,5c0.1,2.1,0.1,2.1-1,4c-1.9,1.9-1.9,1.9-5,4c-1.2,0.8-1.2,0.8-2.4,1.7
		c-0.9,0.6-1.7,1.1-2.6,1.7c-0.8,0.5-1.7,1.1-2.5,1.6c-2.5,1-2.5,1-5,0.4c-2.6-1.5-4.6-3-6.8-5c-0.7-0.6-1.4-1.3-2.1-1.9
		c-0.5-0.5-1-1-1.6-1.5C624.6,478.1,632.9,472.3,642,474z"/>
	<path class="st9" d="M622,459c2,1.2,2,1.2,3,3c0.3,2.4,0.3,2.4,0,5c-1.8,1.7-1.8,1.7-4.2,3.1c-0.8,0.5-1.6,1-2.5,1.5
		c-0.8,0.5-1.5,0.9-2.3,1.4c-0.9,0.7-1.9,1.3-2.8,2c-0.7,0.3-1.4,0.7-2.2,1c-3.3-1.3-5.6-3.3-8.2-5.6c-0.7-0.6-1.4-1.3-2.1-1.9
		c-0.5-0.5-1.1-1-1.6-1.5C605.7,460.9,612.9,456.5,622,459z"/>
	<path class="st10" d="M677.4,509.7c4.8,2.8,8.1,5.3,9.6,10.8c0,4-0.7,5.3-3,8.5c-2.3,1.8-2.3,1.8-4.9,3.4c-0.9,0.5-1.7,1-2.6,1.6
		c-2.9,1.2-3.6,1.1-6.5,0c-1.6-1.2-1.6-1.2-3.2-2.8c-0.6-0.6-1.2-1.1-1.8-1.7c-0.6-0.6-1.2-1.2-1.8-1.8c-1.2-1.2-2.4-2.3-3.6-3.5
		c-0.6-0.6-1.2-1.1-1.8-1.7c-2.5-2.3-5.1-4.5-7.7-6.6C657,507.9,667.5,505.1,677.4,509.7z M655,515c3,7.4,11.3,12.9,18,17
		c1.3-0.8,2.6-1.6,3.9-2.4c0.7-0.4,1.4-0.9,2.2-1.3c2.1-1.3,2.1-1.3,3.9-3.3c0.8-3.3,0.8-3.3,0-7c-3.8-4.8-8.7-7.5-14.7-8.4
		C663.3,510.2,659.3,512.6,655,515z"/>
	<path class="st10" d="M744.4,469.7c4.7,2.1,7.8,4.9,10.6,9.3c0.7,3.1,0.5,4.7,0,8c-3,4.1-6,6-11,7c-6.3,0.1-11.8-1.4-17-5
		c-3.1-3.4-4.8-5.7-5.5-10.2c0.5-3.8,0.7-4.6,3.2-7.2C730.4,467.3,737.9,467.8,744.4,469.7z M726,475c-1.3,2.8-1.3,2.8-1,6
		c2.2,4.9,5.1,7.2,9.8,9.3c4.6,1.5,8.5,1.4,13-0.6c2.3-1.7,2.3-1.7,4.1-4.7c-0.1-3.9-0.7-5.6-3.2-8.7c-4.7-3.9-8.7-5.9-14.8-5.7
		C730.5,471.3,728.5,472.7,726,475z"/>
	<path class="st11" d="M662,434c2.9,1.3,5.8,2.5,8.6,3.8c0.8,0.4,1.6,0.7,2.4,1.1c4.4,1.9,8.7,3.9,12.9,6.1c-2.4,2.6-5,4.4-8.1,6.2
		c-0.9,0.5-1.8,1.1-2.7,1.6C673,454,673,454,671,454c-1.3-2.6-2.6-5.2-3.9-7.8c-0.4-0.7-0.7-1.5-1.1-2.2c-0.4-0.7-0.7-1.4-1.1-2.1
		c-0.3-0.6-0.7-1.3-1-2C663,438,662.5,436.1,662,434z"/>
	<path class="st12" d="M557,572c0,0.7,0,1.3,0,2c-1.3,0.2-2.6,0.5-3.9,0.8c-3.3,0.8-3.3,0.8-5.6,3.2c-0.6,2-0.6,2-0.5,4
		c1.6,0,3.2,0,4.8,0.1c0.9,0,1.8,0,2.7,0c2.4-0.1,4.3-0.5,6.6-1.1c5.9-0.7,5.9-0.7,8.8,1.1c1.5,1.2,2.8,2.5,4.2,3.9
		c-0.3,3.2-0.8,4.8-2.9,7.2c-4.2,2.4-8.2,2.6-13.1,2.8c0-0.7,0-1.3,0-2c0.7-0.2,1.4-0.3,2.1-0.5c1.4-0.4,1.4-0.4,2.8-0.7
		c0.9-0.2,1.8-0.5,2.7-0.7c2.5-0.8,2.5-0.8,3.7-3c0.8-2,0.8-2,0.7-4c-1.6,0-3.2,0-4.8-0.1c-0.9,0-1.8,0-2.7,0
		c-2.4,0.1-4.3,0.5-6.6,1.1c-4.3,0.5-7,0.4-10.5-2.1c-2.5-2.9-2.5-2.9-2.9-5.9c1.8-3.8,3.6-4.7,7.3-6.3
		C552.6,570.8,554.4,571,557,572z"/>
	<path class="st13" d="M626,528c4,1.6,6.9,4.5,10.1,7.4c0.5,0.5,1.1,1,1.6,1.5c7,6.5,7,6.5,7.8,10.7c-0.5,2.5-0.5,2.5-2.9,4.8
		c-4.2,2.8-7.6,3.5-12.6,2.8c-8.2-3.4-14.9-10.8-21-17c4.5,0,4.5,0,7.3,2.6c0.6,0.5,1.2,1.1,1.8,1.6c0.6,0.6,1.2,1.1,1.9,1.7
		c5.4,5.1,5.4,5.1,12.1,8.1c3.9-0.3,5.7-0.8,9-3c-0.4-4.8-2.5-6.9-6-10c-0.8-0.8-1.7-1.5-2.6-2.3c-2.5-2.2-5-4.5-7.4-6.7
		C625.3,529.3,625.7,528.7,626,528z"/>
	<path class="st14" d="M592,550c0,0.7,0,1.3,0,2c-1,0.5-1.9,0.9-2.9,1.4c-3.1,1.3-3.1,1.3-4.1,3.6c0.5,0.2,1,0.4,1.6,0.6
		c3.4,2,6.1,4.6,9,7.3c0.6,0.5,1.2,1.1,1.7,1.6c2.6,2.4,5.2,4.9,7.7,7.4c-1,0.3-2,0.7-3,1c-0.7-0.6-1.4-1.3-2.1-1.9
		c-5.6-5.1-11.2-10.1-16.9-15.1c-0.7,0.3-1.4,0.6-2.2,0.9c-2.6,1-5.1,1.6-7.8,2.1c-0.3-0.7-0.7-1.3-1-2c2.6-1.5,5.2-3,7.8-4.5
		c0.7-0.4,1.5-0.9,2.2-1.3c0.7-0.4,1.4-0.8,2.1-1.2c0.6-0.4,1.3-0.8,2-1.1C588,550,588,550,592,550z"/>
	<path class="st12" d="M693,490c3.5,1.5,5.9,3.6,8.7,6.1c4.2,3.8,8.4,7.6,12.7,11.2c1.6,1.6,1.6,1.6,1.6,3.6
		c-3.2-0.6-4.9-1.5-7.2-3.8c-0.6-0.6-1.2-1.1-1.8-1.7c-0.9-0.9-0.9-0.9-1.8-1.8c-1.2-1.2-2.4-2.3-3.6-3.5c-0.6-0.6-1.2-1.1-1.8-1.7
		c-2.5-2.3-5.1-4.5-7.7-6.6C692.3,491.3,692.7,490.7,693,490z"/>
	<path class="st15" d="M641,349c6.3,0,12.5,0,19,0c0,0.3,0,0.7,0,1c-2,0.3-4,0.7-6,1c-0.3,1-0.7,2-1,3c-5.6,0.7-11.2,1.3-17,2
		c0.3-1.3,0.7-2.6,1-4c1.3-0.3,2.6-0.7,4-1C641,350.3,641,349.7,641,349z"/>
	<path class="st16" d="M413,478c-1.5,3.7-3.8,6-6.6,8.8c-1.2,1.2-1.2,1.2-2.5,2.4c-0.6,0.6-1.3,1.2-1.9,1.8c-0.7-0.3-1.3-0.7-2-1
		C410.4,478,410.4,478,413,478z"/>
	<path class="st17" d="M653,513c0.9,1.2,0.9,1.2,1.9,2.4c2,2.6,2,2.6,4.1,4.6c-0.3,1-0.7,2-1,3c-2.6-2.3-5.3-4.6-8-7
		C651,515,652,514,653,513z"/>
	<path class="st18" d="M518,619c3.7,0.3,4.8,0.8,7.3,3.6c0.8,1.2,0.8,1.2,1.7,2.4c-4.4,0-5.8-2.1-9-5C518,619.7,518,619.3,518,619z"
		/>
	<path class="st19" d="M539,637c3,0.6,4.4,1.3,7,3c-0.3,1-0.7,2-1,3c-2-1.6-4-3.3-6-5C539,637.7,539,637.3,539,637z"/>
	<path class="st20" d="M552,571c1.7,0.3,3.3,0.7,5,1c0,0.7,0,1.3,0,2c-2.3,0-4.6,0-7,0C550.7,573,551.3,572,552,571z"/>
</g>
<g id="Capa_1_copia">
	<path class="st21" d="M692.3,363.8c7.8,6.1,15,12.9,22.1,19.7c2.5,2.4,5.1,4.6,7.7,6.9c2.3,2,4.6,4.1,6.9,6.1
		c2.9,2.7,5.9,5.3,8.9,7.9c4,3.5,7.8,7,11.7,10.6c3.4,3.1,6.9,6.2,10.4,9.2c3.5,3.1,7,6.3,10.4,9.4c2.2,2,4.4,3.9,6.6,5.8
		c3.9,3.4,7.8,7,11.6,10.5c2.8,2.6,5.6,5.1,8.4,7.5c3.9,3.4,7.8,6.9,11.6,10.4c2.8,2.6,5.7,5.2,8.7,7.7c21.2,18.5,31,47.3,42.6,72.2
		c4.2,9.2,8.6,18.3,12.9,27.5c3.1,6.5,6.1,12.9,9.2,19.4c0.7,1.5,1.4,3,2.1,4.4c7.7,16.2,15.2,32.4,22.5,48.8c0.3,0.7,0.7,1.5,1,2.2
		c2.2,4.9,4.4,9.9,6.5,14.8c0.3,0.8,0.7,1.5,1,2.3c1,2.3,2,4.6,2.9,6.9c0.3,0.7,0.6,1.4,0.9,2.1c3.6,8.7,3.2,15.5,0.1,24.3
		c-8.3,19.4-23.5,33.9-41.3,44.7c-2.1,1.3-4.3,2.6-6.4,3.9c-1.6,1-1.6,1-3.2,2c-4.2,2.6-8.4,5.3-12.6,7.9c-0.8,0.5-1.5,1-2.3,1.4
		c-7,4.4-13.9,8.8-20.9,13.3c-9.8,6.3-19.7,12.5-29.5,18.7c-10.2,6.4-20.3,12.9-30.5,19.3c-5.8,3.7-11.7,7.4-17.5,11.1
		c-7.3,4.6-14.6,9.3-21.9,13.9c-8.3,5.3-16.6,10.6-24.9,15.8c-7.9,4.9-15.8,9.9-23.6,15.1c-9.9,6.5-20,12.8-30.1,19
		c-2,1.2-4,2.5-5.9,3.8c-15.5,10-32.1,15.2-50.6,15.1c-1.2,0-2.4,0-3.6,0c-9.6-0.2-17.4-1.6-26.1-5.5c-1.6-0.7-1.6-0.7-3.3-1.4
		c-10.5-4.9-18.5-12.2-26.9-20c-2.2-2-4.4-4-6.6-5.9c-5.2-4.5-10.3-9.3-15.3-14.1c-3.4-3.2-6.9-6.4-10.4-9.6
		c-4.8-4.4-9.5-8.8-14.2-13.2c-4.8-4.5-9.7-9-14.7-13.4c-4.1-3.7-8.1-7.5-12.1-11.3c-3.5-3.3-7-6.5-10.5-9.7
		c-4.2-3.8-8.4-7.6-12.5-11.5c-4.9-4.6-9.9-9.2-15-13.7c-3.5-3.2-7.1-6.4-10.6-9.7c-3.6-3.4-7.3-6.7-11-10.1
		c-4.7-4.3-9.4-8.7-14.1-13c-3.6-3.3-7.2-6.7-10.9-10c-1-0.9-2-1.8-3-2.7c-2.1-1.9-4.1-3.8-6.2-5.6c-36.5-33.3-36.5-33.3-38.1-51
		c-0.6-15.5,6.8-30.6,12.1-44.9c0.4-1,0.7-2.1,1.1-3.1c5.6-15.6,11.4-31.1,17.2-46.6c0.6-1.6,1.2-3.3,1.8-4.9
		c0.3-0.8,0.6-1.6,0.9-2.5c2.7-7.1,5.3-14.2,7.9-21.3c0.9-2.3,1.7-4.6,2.6-6.9c1.2-3.4,2.5-6.7,3.7-10.1
		c11.9-32.3,22.6-51.7,53-69.3c2.1-1.2,4.2-2.5,6.4-3.7c1.1-0.6,2.1-1.2,3.2-1.9c5.1-2.9,10.1-5.9,15.2-8.9c2-1.2,4-2.3,6-3.5
		c1-0.6,2-1.2,3-1.8c3-1.8,6-3.5,9-5.2c1.5-0.9,1.5-0.9,3-1.7c2-1.2,4-2.3,6-3.5c5-2.9,10-5.8,14.9-8.7
		c10.4-6.1,20.8-12.1,31.2-18.1c8-4.6,15.9-9.2,23.9-13.9c9-5.3,18.1-10.6,27.2-15.8c5.5-3.1,10.9-6.3,16.4-9.5
		C630.3,349.3,660.1,339.6,692.3,363.8z"/>
	<path class="st22" d="M686.3,366.6c5.3,4,10.2,8.5,15.1,13c2.2,2,4.4,4,6.6,5.9c4.2,3.6,8.3,7.4,12.3,11.1c2.2,2,4.4,3.9,6.6,5.8
		c3.9,3.4,7.8,7,11.6,10.5c2.8,2.6,5.6,5.1,8.4,7.5c3.9,3.4,7.8,6.9,11.6,10.5c2.8,2.5,5.5,5,8.4,7.5c3.6,3.1,7.1,6.3,10.6,9.6
		c4.1,3.8,8.3,7.6,12.6,11.3c4.9,4.3,9.8,8.7,14.6,13.1c1.3,1.2,1.3,1.2,2.6,2.4c0.8,0.8,1.7,1.5,2.5,2.3c2.3,2.1,2.3,2.1,5.3,4.3
		c9.5,8.7,17,20.1,17.6,33.2c-0.5,10.7-5,19.2-12.6,26.5c-0.7,0.7-1.4,1.4-2.2,2.1c-6.4,5.9-13.2,11.2-20.1,16.6
		c-1.6,1.2-3.2,2.5-4.8,3.8C778.5,574.7,763.3,585,748,595c-0.7,0.5-1.4,0.9-2.1,1.4c-13.4,8.6-27.1,16.7-40.9,24.6
		c-0.8,0.5-1.6,0.9-2.4,1.4c-25,14.3-51.1,28.3-77.9,39c-7.4,3.1-11.9,7-15.1,14.5c-1.3,4.1-1.3,8.2-1.5,12.4c-0.1,1-0.1,2-0.2,3.1
		c-0.2,3.3-0.3,6.6-0.5,10c-0.1,2.4-0.2,4.7-0.4,7.1c-0.3,4.9-0.5,9.7-0.8,14.6c-0.3,6.3-0.7,12.7-1.1,19c-0.1,1.4-0.1,1.4-0.2,2.9
		c-0.1,1.9-0.2,3.9-0.4,5.8c-0.9,15.3-1.8,30.6-2.6,45.9c-0.1,2.5-0.3,5-0.4,7.6c-0.1,1.7-0.2,3.4-0.3,5.1c-0.1,1.3-0.1,1.3-0.1,2.5
		c-0.3,5-0.5,9.9-0.8,14.9c-0.2,3.1-0.3,6.3-0.5,9.4c-0.1,1.5-0.1,2.9-0.2,4.4c-1.2,25-1.2,25-6.9,34.6c-1.7-0.3-3.3-0.7-5-1
		c-3.1-8.1-4.6-15.1-4.7-23.7c0-1.2-0.1-2.3-0.1-3.5c-0.1-3.3-0.1-6.6-0.2-9.8c-0.1-3.6-0.2-7.2-0.2-10.7
		c-0.2-6.8-0.3-13.6-0.5-20.5c-0.3-13.8-0.6-27.7-1-41.5c-0.2-7.4-0.4-14.7-0.5-22.1c0-0.7,0-1.5-0.1-2.2c-0.4-16.7-0.8-33.3-1.2-50
		c0-0.7,0-1.3,0-2c-0.2-7.9-0.4-15.9-0.5-23.8c-0.8-0.3-1.5-0.5-2.3-0.8c-1-0.4-2-0.7-3-1.1c-1-0.4-2-0.7-3-1.1
		c-14.7-5.5-26-17.4-37.3-28c-3.5-3.3-7.1-6.5-10.9-9.5c-5.5-4.4-10.6-9.2-15.7-14.1c-3.9-3.7-7.9-7.3-12-10.9
		c-2.4-2.1-4.8-4.3-7.1-6.5c-3.6-3.3-7.2-6.4-10.9-9.4c-6.1-4.9-11.7-10.2-17.3-15.5c-3.1-2.9-6.3-5.8-9.6-8.6
		c-2.3-2-4.6-4.1-6.9-6.1c-3-2.7-6-5.4-9-8c-3.9-3.4-7.7-6.8-11.5-10.3c-1.5-1.4-3.1-2.7-4.7-4c-7.2-5.8-12.9-13.9-14-23.3
		c-0.5-8.9,3.3-15.4,9.1-21.9c6.4-5.9,13.7-10.2,21.2-14.5c2.1-1.2,4.3-2.5,6.4-3.7c1.1-0.6,2.2-1.3,3.3-1.9
		c5.1-2.9,10.1-5.9,15.1-8.8c8.3-4.8,16.6-9.6,24.9-14.4c8.9-5.1,17.7-10.3,26.6-15.6c10.4-6.2,20.8-12.2,31.4-18.2
		c7.5-4.3,15-8.6,22.4-12.9c11.6-6.8,23.1-13.5,34.8-20.1c3-1.8,6.1-3.5,9.1-5.3c1.9-1.1,3.7-2.1,5.6-3.2c0.8-0.5,1.7-1,2.5-1.5
		C639.9,351.1,663.3,350.6,686.3,366.6z"/>
	<path class="st23" d="M590.2,485.7c7.2,4.6,13.4,11,15.8,19.3c0.7,5.7,0.4,10.2-3,15c-6.3,6.7-12.9,10.1-22,11
		c-0.6,0.1-1.2,0.1-1.9,0.2c-11.7,0.6-23.1-4-32.1-11.2c-6.2-5.9-10.4-12-11.1-20.7c0.3-5.6,3.3-9.8,7.2-13.6
		C557.4,474.8,575.3,477.5,590.2,485.7z"/>
	<path class="st24" d="M628.5,449.6c3.8,2.3,6.2,4.6,8.5,8.4c0.3,3.9,0.3,3.9,0,7c1.3-0.1,2.6-0.2,3.9-0.3c6.5,0,11.9,2.6,16.8,6.8
		c3,3.3,4.4,6.1,4.3,10.5c-2.7,7.4-8.4,10.2-15,14c-1.6,1-3.3,1.9-4.9,2.9c-4.7,2.7-9.4,5.4-14.1,8.1c-5.1-3.7-9.9-7.6-14.5-11.9
		c-1.1-1.1-2.3-2.1-3.4-3.2c-0.5-0.5-1.1-1-1.6-1.5c-2.5-2.3-5-4.5-7.5-6.7c-3.2-2.8-6.3-5.6-9.5-8.5c-3-2.7-6-5.2-9.1-7.8
		C581,466,581,466,581,464c2.1-1.5,2.1-1.5,5-3.2c1.1-0.6,2.1-1.2,3.2-1.9c1.1-0.6,2.2-1.3,3.4-1.9c1.1-0.6,2.2-1.3,3.3-1.9
		C606,449.3,617,444.4,628.5,449.6z"/>
	<path class="st24" d="M668.4,425.7c1.2,0.6,1.2,0.6,2.5,1.1c2.7,1.2,5.3,2.4,8,3.6c3.6,1.6,7.2,3.3,10.9,4.9
		c0.9,0.4,1.8,0.8,2.7,1.2c8.1,3.6,16.2,7.2,24.3,10.6c0.8,0.4,1.7,0.7,2.5,1.1c1.1,0.4,1.1,0.4,2.1,0.9c1.6,0.9,1.6,0.9,2.6,2.9
		c-3.8,2.7-7.4,4.8-12,6c-3.2-1.3-3.2-1.3-6.6-3.3c-3.6-2-3.6-2-7.4-2.7c-6.3,2-11.9,6.1-17.3,9.9C679,463,679,463,677,463
		c0.4,0.7,0.7,1.4,1.1,2.1c0.5,0.9,0.9,1.8,1.4,2.7c0.5,0.9,0.9,1.8,1.4,2.7c1.1,2.5,1.1,2.5,1.1,5.5c-1.4,0.9-2.9,1.7-4.3,2.6
		c-1.2,0.7-1.2,0.7-2.4,1.4c-2.3,1-2.3,1-5.3,0c-1.1-1.8-1.1-1.8-2.2-4.1c-0.4-0.9-0.8-1.8-1.3-2.7c-0.4-1-0.9-1.9-1.3-3
		c-1-2.1-1.9-4.2-2.9-6.2c-0.5-1.1-1-2.2-1.6-3.4c-2.8-5.9-5.6-11.7-8.4-17.6c-1.2-2.6-2.5-5.2-3.7-7.7c-1.2-2.4-2.4-4.9-3.5-7.3
		c2-2.1,3.9-3.8,6.4-5.2c0.6-0.4,1.1-0.7,1.7-1.1C658.2,419.9,663.9,423.6,668.4,425.7z"/>
	<path class="st24" d="M521,500c1,14.4,1,14.4,2,29c2.4,0.5,4.8,1,7.3,1.6c12.7,2.8,25.2,6.1,37.7,9.4c-3.6,3.7-7.1,6.9-12.4,7.1
		c-7.2-0.7-13.9-2.2-20.8-4.1c-1-0.3-2.1-0.6-3.2-0.9c-2.5-0.7-5.1-1.4-7.6-2.1c0.1,4.8,0.2,8,3.3,11.8c0.9,0.7,1.8,1.5,2.8,2.2
		c0.9,0.8,1.8,1.5,2.8,2.3c1.1,0.8,1.1,0.8,2.2,1.7c-1.1,3.3-1.5,3.6-4.3,5.2c-0.6,0.4-1.2,0.7-1.8,1.1c-2.5,0.9-3.4,0.8-5.9-0.3
		c-2.1-1.8-4.1-3.6-6.1-5.5c-4-3.8-8.1-7.5-12.4-11c-4.8-3.9-9.4-8-13.9-12.2c-3.8-3.5-7.6-6.9-11.6-10.3c2.5-2.6,4.5-4.8,8-6
		c5.5,0.1,8.4,3.8,12.1,7.4c1.2,1.2,2.4,2.4,3.7,3.5c0.5,0.5,1.1,1,1.6,1.6c1.8,1.6,3.7,3.1,5.7,4.5c-0.7-9.6-1.3-19.1-2-29
		C519,500,519,500,521,500z"/>
	<path class="st25" d="M581.8,493.5c4,2.7,7.1,6.2,9.2,10.5c0.7,4.8,0.8,8-2.2,11.9c-5.8,4.2-10.8,4.9-17.8,4.1
		c-8-2.1-13.8-6-18.9-12.4c-1.5-3.6-1.7-6.8-1.1-10.6c2.3-4.3,5.2-6.1,9.7-7.6C568.2,488,575.1,489.8,581.8,493.5z"/>
	<path class="st26" d="M744.4,469.7c4.7,2.1,7.8,4.9,10.6,9.3c0.7,3.1,0.5,4.7,0,8c-3,4.1-6,6-11,7c-6.3,0.1-11.8-1.4-17-5
		c-3.1-3.4-4.8-5.7-5.5-10.2c0.5-3.8,0.7-4.6,3.2-7.2C730.4,467.3,737.9,467.8,744.4,469.7z"/>
	<path class="st27" d="M642,474c3.1,2.2,3.1,2.2,5,5c0.1,2.1,0.1,2.1-1,4c-1.9,1.9-1.9,1.9-5,4c-1.2,0.8-1.2,0.8-2.4,1.7
		c-0.9,0.6-1.7,1.1-2.6,1.7c-0.8,0.5-1.7,1.1-2.5,1.6c-2.5,1-2.5,1-5,0.4c-2.6-1.5-4.6-3-6.8-5c-0.7-0.6-1.4-1.3-2.1-1.9
		c-0.5-0.5-1-1-1.6-1.5C624.6,478.1,632.9,472.3,642,474z"/>
	<path class="st28" d="M622,459c2,1.2,2,1.2,3,3c0.3,2.4,0.3,2.4,0,5c-1.8,1.7-1.8,1.7-4.2,3.1c-0.8,0.5-1.6,1-2.5,1.5
		c-0.8,0.5-1.5,0.9-2.3,1.4c-0.9,0.7-1.9,1.3-2.8,2c-0.7,0.3-1.4,0.7-2.2,1c-3.3-1.3-5.6-3.3-8.2-5.6c-0.7-0.6-1.4-1.3-2.1-1.9
		c-0.5-0.5-1.1-1-1.6-1.5C605.7,460.9,612.9,456.5,622,459z"/>
	<path class="st29" d="M677.4,509.7c4.8,2.8,8.1,5.3,9.6,10.8c0,4-0.7,5.3-3,8.5c-2.3,1.8-2.3,1.8-4.9,3.4c-0.9,0.5-1.7,1-2.6,1.6
		c-2.9,1.2-3.6,1.1-6.5,0c-1.6-1.2-1.6-1.2-3.2-2.8c-0.6-0.6-1.2-1.1-1.8-1.7c-0.6-0.6-1.2-1.2-1.8-1.8c-1.2-1.2-2.4-2.3-3.6-3.5
		c-0.6-0.6-1.2-1.1-1.8-1.7c-2.5-2.3-5.1-4.5-7.7-6.6C657,507.9,667.5,505.1,677.4,509.7z M655,515c3,7.4,11.3,12.9,18,17
		c1.3-0.8,2.6-1.6,3.9-2.4c0.7-0.4,1.4-0.9,2.2-1.3c2.1-1.3,2.1-1.3,3.9-3.3c0.8-3.3,0.8-3.3,0-7c-3.8-4.8-8.7-7.5-14.7-8.4
		C663.3,510.2,659.3,512.6,655,515z"/>
	<path class="st29" d="M744.4,469.7c4.7,2.1,7.8,4.9,10.6,9.3c0.7,3.1,0.5,4.7,0,8c-3,4.1-6,6-11,7c-6.3,0.1-11.8-1.4-17-5
		c-3.1-3.4-4.8-5.7-5.5-10.2c0.5-3.8,0.7-4.6,3.2-7.2C730.4,467.3,737.9,467.8,744.4,469.7z M726,475c-1.3,2.8-1.3,2.8-1,6
		c2.2,4.9,5.1,7.2,9.8,9.3c4.6,1.5,8.5,1.4,13-0.6c2.3-1.7,2.3-1.7,4.1-4.7c-0.1-3.9-0.7-5.6-3.2-8.7c-4.7-3.9-8.7-5.9-14.8-5.7
		C730.5,471.3,728.5,472.7,726,475z"/>
	<path class="st30" d="M662,434c2.9,1.3,5.8,2.5,8.6,3.8c0.8,0.4,1.6,0.7,2.4,1.1c4.4,1.9,8.7,3.9,12.9,6.1c-2.4,2.6-5,4.4-8.1,6.2
		c-0.9,0.5-1.8,1.1-2.7,1.6C673,454,673,454,671,454c-1.3-2.6-2.6-5.2-3.9-7.8c-0.4-0.7-0.7-1.5-1.1-2.2c-0.4-0.7-0.7-1.4-1.1-2.1
		c-0.3-0.6-0.7-1.3-1-2C663,438,662.5,436.1,662,434z"/>
	<path class="st31" d="M557,572c0,0.7,0,1.3,0,2c-1.3,0.2-2.6,0.5-3.9,0.8c-3.3,0.8-3.3,0.8-5.6,3.2c-0.6,2-0.6,2-0.5,4
		c1.6,0,3.2,0,4.8,0.1c0.9,0,1.8,0,2.7,0c2.4-0.1,4.3-0.5,6.6-1.1c5.9-0.7,5.9-0.7,8.8,1.1c1.5,1.2,2.8,2.5,4.2,3.9
		c-0.3,3.2-0.8,4.8-2.9,7.2c-4.2,2.4-8.2,2.6-13.1,2.8c0-0.7,0-1.3,0-2c0.7-0.2,1.4-0.3,2.1-0.5c1.4-0.4,1.4-0.4,2.8-0.7
		c0.9-0.2,1.8-0.5,2.7-0.7c2.5-0.8,2.5-0.8,3.7-3c0.8-2,0.8-2,0.7-4c-1.6,0-3.2,0-4.8-0.1c-0.9,0-1.8,0-2.7,0
		c-2.4,0.1-4.3,0.5-6.6,1.1c-4.3,0.5-7,0.4-10.5-2.1c-2.5-2.9-2.5-2.9-2.9-5.9c1.8-3.8,3.6-4.7,7.3-6.3
		C552.6,570.8,554.4,571,557,572z"/>
	<path class="st32" d="M626,528c4,1.6,6.9,4.5,10.1,7.4c0.5,0.5,1.1,1,1.6,1.5c7,6.5,7,6.5,7.8,10.7c-0.5,2.5-0.5,2.5-2.9,4.8
		c-4.2,2.8-7.6,3.5-12.6,2.8c-8.2-3.4-14.9-10.8-21-17c4.5,0,4.5,0,7.3,2.6c0.6,0.5,1.2,1.1,1.8,1.6c0.6,0.6,1.2,1.1,1.9,1.7
		c5.4,5.1,5.4,5.1,12.1,8.1c3.9-0.3,5.7-0.8,9-3c-0.4-4.8-2.5-6.9-6-10c-0.8-0.8-1.7-1.5-2.6-2.3c-2.5-2.2-5-4.5-7.4-6.7
		C625.3,529.3,625.7,528.7,626,528z"/>
	<path class="st33" d="M592,550c0,0.7,0,1.3,0,2c-1,0.5-1.9,0.9-2.9,1.4c-3.1,1.3-3.1,1.3-4.1,3.6c0.5,0.2,1,0.4,1.6,0.6
		c3.4,2,6.1,4.6,9,7.3c0.6,0.5,1.2,1.1,1.7,1.6c2.6,2.4,5.2,4.9,7.7,7.4c-1,0.3-2,0.7-3,1c-0.7-0.6-1.4-1.3-2.1-1.9
		c-5.6-5.1-11.2-10.1-16.9-15.1c-0.7,0.3-1.4,0.6-2.2,0.9c-2.6,1-5.1,1.6-7.8,2.1c-0.3-0.7-0.7-1.3-1-2c2.6-1.5,5.2-3,7.8-4.5
		c0.7-0.4,1.5-0.9,2.2-1.3c0.7-0.4,1.4-0.8,2.1-1.2c0.6-0.4,1.3-0.8,2-1.1C588,550,588,550,592,550z"/>
	<path class="st31" d="M693,490c3.5,1.5,5.9,3.6,8.7,6.1c4.2,3.8,8.4,7.6,12.7,11.2c1.6,1.6,1.6,1.6,1.6,3.6
		c-3.2-0.6-4.9-1.5-7.2-3.8c-0.6-0.6-1.2-1.1-1.8-1.7c-0.9-0.9-0.9-0.9-1.8-1.8c-1.2-1.2-2.4-2.3-3.6-3.5c-0.6-0.6-1.2-1.1-1.8-1.7
		c-2.5-2.3-5.1-4.5-7.7-6.6C692.3,491.3,692.7,490.7,693,490z"/>
	<path class="st34" d="M653,513c0.9,1.2,0.9,1.2,1.9,2.4c2,2.6,2,2.6,4.1,4.6c-0.3,1-0.7,2-1,3c-2.6-2.3-5.3-4.6-8-7
		C651,515,652,514,653,513z"/>
	<path class="st35" d="M552,571c1.7,0.3,3.3,0.7,5,1c0,0.7,0,1.3,0,2c-2.3,0-4.6,0-7,0C550.7,573,551.3,572,552,571z"/>
</g>
</svg>
